<svg width="150" height="60" viewBox="0 0 150 60" fill="none" xmlns="http://www.w3.org/2000/svg">
<mask id="mask0_1992_3299" style="mask-type:luminance" maskUnits="userSpaceOnUse" x="32" y="32" width="28" height="28">
<path d="M32.1885 32.0742H59.7778V60H32.1885V32.0742Z" fill="white"/>
</mask>
<g mask="url(#mask0_1992_3299)">
<path d="M60.0838 39.2194C60.0838 43.1456 56.905 46.3305 52.9788 46.3305H46.4232V52.8796C46.4232 56.8057 43.2444 59.985 39.3173 59.985C35.3912 59.985 32.2119 56.8057 32.2119 52.8796V46.5609C38.9528 44.2044 44.3055 38.8518 46.6624 32.1113H52.981C56.9072 32.1113 60.0873 35.2906 60.0873 39.2168L60.0838 39.2194Z" fill="#60C1A1"/>
</g>
<mask id="mask1_1992_3299" style="mask-type:luminance" maskUnits="userSpaceOnUse" x="0" y="0" width="49" height="48">
<path d="M0 0H48.001V47.8884H0V0Z" fill="white"/>
</mask>
<g mask="url(#mask1_1992_3299)">
<path d="M47.9793 12.2071V24.3536C47.9793 27.0694 47.5158 29.6813 46.6629 32.1136H45.9041C38.3518 32.1136 32.2124 38.2552 32.2124 45.8101V46.5601C29.7832 47.4135 27.1713 47.877 24.4525 47.877H12.3055C5.55926 47.877 0.0966797 42.4149 0.0966797 35.6691C0.0966797 28.9229 5.55926 23.4608 12.3055 23.4608H23.5622V12.2044C23.5622 5.46437 29.0248 -0.00390625 35.7706 -0.00390625C42.5172 -0.00390625 47.9793 5.46437 47.9793 12.2044V12.2071Z" fill="#137DC1"/>
</g>
<path d="M46.6596 32.1152C44.3026 38.8553 38.95 44.2083 32.21 46.5644V45.8144C32.21 38.2569 38.352 32.1179 45.9008 32.1179H46.6596V32.1152Z" fill="#1B624D"/>
<path d="M73.0975 8.62305C74.6803 8.62305 75.903 8.94505 76.7652 9.5886C77.6274 10.2313 78.0655 11.139 78.0795 12.3118C78.0795 13.174 77.842 13.8951 77.368 14.4742C76.8949 15.0525 76.2557 15.4621 75.4509 15.7026V15.7447C76.4253 15.8301 77.2335 16.2226 77.8762 16.9223C78.5198 17.621 78.8418 18.4582 78.8418 19.4334C78.8418 20.7617 78.3397 21.7899 77.3365 22.5176C76.3341 23.2457 74.9068 23.6163 73.0554 23.6304H68.5186V8.62305H73.0975ZM72.8434 14.9824C73.9308 14.9824 74.7574 14.7888 75.323 14.4006C75.8882 14.0116 76.1712 13.393 76.1712 12.5449C76.1712 11.0615 75.1254 10.3053 73.0344 10.2773H70.3007V14.9824H72.8434ZM73.3954 21.9779C74.4687 21.9779 75.327 21.7413 75.9696 21.2682C76.6132 20.7941 76.9352 20.1615 76.9352 19.3703C76.9352 18.4661 76.6167 17.7844 75.9802 17.3253C75.3445 16.8653 74.4753 16.6349 73.3726 16.6349H70.3007V21.9779H73.3954Z" fill="#137DC1"/>
<path d="M83.6542 8.62305V21.9779H90.5218V23.6304H81.8721V8.62305H83.6542Z" fill="#137DC1"/>
<path d="M99.4444 8.24219C101.705 8.24219 103.57 8.98432 105.04 10.4677C106.509 11.9515 107.259 13.8384 107.288 16.1279C107.273 18.4598 106.516 20.3537 105.019 21.809C103.521 23.2648 101.663 23.9995 99.4444 24.0135C97.1838 24.0135 95.3184 23.2683 93.8491 21.7775C92.3793 20.2858 91.6306 18.4024 91.6025 16.1279C91.6025 13.8673 92.3368 11.9953 93.8053 10.5115C95.2746 9.02813 97.1545 8.27154 99.4444 8.24219ZM93.5091 16.1279C93.5091 17.9223 94.0743 19.4026 95.2054 20.5684C96.3361 21.7346 97.749 22.3313 99.4444 22.3593C101.141 22.3593 102.547 21.7661 103.662 20.5789C104.779 19.3921 105.352 17.9083 105.38 16.1279C105.38 14.3895 104.828 12.9236 103.725 11.7294C102.624 10.5356 101.19 9.92446 99.4234 9.89643C97.699 9.91044 96.2888 10.5146 95.1931 11.7084C94.0984 12.9026 93.5372 14.3755 93.5091 16.1279Z" fill="#137DC1"/>
<path d="M117.12 8.24219C119.381 8.24219 121.246 8.98432 122.716 10.4677C124.185 11.9515 124.934 13.8384 124.964 16.1279C124.948 18.4598 124.192 20.3537 122.694 21.809C121.197 23.2648 119.339 23.9995 117.12 24.0135C114.86 24.0135 112.994 23.2683 111.525 21.7775C110.055 20.2858 109.306 18.4024 109.278 16.1279C109.278 13.8673 110.013 11.9953 111.481 10.5115C112.95 9.02813 114.83 8.27154 117.12 8.24219ZM111.185 16.1279C111.185 17.9223 111.75 19.4026 112.881 20.5684C114.012 21.7346 115.425 22.3313 117.12 22.3593C118.816 22.3593 120.222 21.7661 121.338 20.5789C122.455 19.3921 123.027 17.9083 123.055 16.1279C123.055 14.3895 122.504 12.9236 121.401 11.7294C120.299 10.5356 118.866 9.92446 117.099 9.89643C115.375 9.91044 113.965 10.5146 112.869 11.7084C111.774 12.9026 111.213 14.3755 111.185 16.1279Z" fill="#137DC1"/>
<path d="M130.473 8.62305L135.56 20.3867H135.604L140.733 8.62305H143.319V23.6304H141.539V11.0396H141.495L136.112 23.6304H135.031L129.647 11.0396H129.605V23.6304H127.823V8.62305H130.473Z" fill="#137DC1"/>
<path d="M70.2602 29.3086V35.5996H78.1879V29.3086H79.949V44.1564H78.1879V37.2363H70.2602V44.1564H68.499V29.3086H70.2602Z" fill="#60C1A1"/>
<path d="M92.971 29.3086V30.9453H85.4008V35.5996H92.4681V37.2363H85.4008V42.5215H93.3495V44.1564H83.6396V29.3086H92.971Z" fill="#60C1A1"/>
<path d="M102.556 29.3086L108.868 44.1564H106.812L105.304 40.508H97.8787L96.3489 44.1564H94.3564L100.9 29.3086H102.556ZM101.653 31.5744L98.5709 38.8713H104.632L101.695 31.5744H101.653Z" fill="#60C1A1"/>
<path d="M112.6 29.3086V42.5215H119.396V44.1564H110.839V29.3086H112.6Z" fill="#60C1A1"/>
<path d="M129.355 29.3086V30.9453H124.448V44.1564H122.687V30.9453H117.78V29.3086H129.355Z" fill="#60C1A1"/>
<path d="M133.194 29.3086V35.5996H141.121V29.3086H142.883V44.1564H141.121V37.2363H133.194V44.1564H131.433V29.3086H133.194Z" fill="#60C1A1"/>
<mask id="mask2_1992_3299" style="mask-type:luminance" maskUnits="userSpaceOnUse" x="114" y="48" width="30" height="7">
<path d="M143.554 48.2246H114.507V54.6173H143.554V48.2246Z" fill="white"/>
</mask>
<g mask="url(#mask2_1992_3299)">
<path d="M115.598 48.5996V50.4659H117.95V48.5996H118.472V53.0033H117.95V50.9513H115.598V53.0033H115.076V48.5996H115.598Z" fill="#137DC1"/>
<path d="M121.613 48.4902C122.277 48.4902 122.824 48.7084 123.255 49.1439C123.686 49.5798 123.906 50.1335 123.914 50.8051C123.911 51.4885 123.689 52.044 123.248 52.4716C122.809 52.8983 122.264 53.1134 121.613 53.1182C120.95 53.1182 120.402 52.9001 119.971 52.4629C119.54 52.0248 119.32 51.4723 119.312 50.8051C119.312 50.1418 119.528 49.5925 119.959 49.1579C120.39 48.7224 120.941 48.4999 121.613 48.4902ZM119.872 50.8051C119.872 51.3308 120.037 51.765 120.369 52.1071C120.701 52.4497 121.116 52.625 121.613 52.6328C122.111 52.6328 122.523 52.4589 122.851 52.1106C123.179 51.7628 123.347 51.3273 123.355 50.8051C123.355 50.2947 123.193 49.8641 122.87 49.5136C122.546 49.1631 122.125 48.984 121.606 48.9756C121.1 48.9805 120.687 49.1579 120.366 49.5084C120.044 49.8588 119.879 50.2912 119.872 50.8051Z" fill="#137DC1"/>
<path d="M126.042 48.4902C126.576 48.4902 126.987 48.6628 127.273 49.0072L126.844 49.3804C126.678 49.1189 126.41 48.984 126.042 48.9756C125.763 48.9756 125.537 49.0422 125.363 49.1754C125.189 49.3077 125.102 49.4882 125.102 49.7169C125.102 49.9158 125.168 50.0735 125.3 50.19C125.433 50.3057 125.683 50.4192 126.049 50.53C126.52 50.668 126.855 50.8358 127.051 51.0329C127.248 51.2292 127.347 51.4951 127.347 51.8303C127.347 52.2206 127.202 52.5321 126.911 52.7643C126.621 52.9956 126.25 53.1134 125.8 53.1182C125.496 53.1182 125.226 53.0644 124.99 52.957C124.754 52.8484 124.572 52.699 124.443 52.5084L124.89 52.1422C124.986 52.2999 125.118 52.4217 125.288 52.5067C125.458 52.5908 125.639 52.6328 125.829 52.6328C126.091 52.6328 126.316 52.5592 126.504 52.412C126.693 52.2648 126.788 52.0839 126.788 51.8688C126.788 51.6739 126.733 51.5201 126.623 51.4079C126.513 51.2958 126.332 51.2007 126.078 51.1223L125.575 50.9541C125.198 50.8257 124.931 50.6649 124.776 50.4722C124.621 50.2794 124.543 50.042 124.543 49.759C124.543 49.3866 124.682 49.0834 124.959 48.8495C125.236 48.6147 125.597 48.4951 126.042 48.4902Z" fill="#137DC1"/>
<path d="M129.549 48.5996C130.022 48.5996 130.39 48.7012 130.653 48.9045C130.917 49.1078 131.053 49.4088 131.061 49.807C131.061 50.1925 130.932 50.49 130.676 50.699C130.419 50.9084 130.075 51.017 129.644 51.0249H128.734V53.0033H128.212V48.5996H129.549ZM129.644 50.5412C129.909 50.5412 130.118 50.4773 130.271 50.3485C130.424 50.2201 130.501 50.0414 130.501 49.8123C130.501 49.5844 130.424 49.4066 130.273 49.2778C130.122 49.1494 129.912 49.085 129.644 49.085H128.734V50.5412H129.644Z" fill="#137DC1"/>
<path d="M132.422 48.5996V53.0033H131.899V48.5996H132.422Z" fill="#137DC1"/>
<path d="M136.472 48.5996V49.085H135.017V53.0033H134.495V49.085H133.039V48.5996H136.472Z" fill="#137DC1"/>
<path d="M138.437 48.5996L140.309 53.0033H139.699L139.252 51.9204H137.051L136.595 53.0033H136.005L137.947 48.5996H138.437ZM138.169 49.2725L137.256 51.4367H139.052L138.181 49.2725H138.169Z" fill="#137DC1"/>
<path d="M141.416 48.5996V52.5179H143.431V53.0033H140.894V48.5996H141.416Z" fill="#137DC1"/>
</g>
</svg>
